<svg xmlns="http://www.w3.org/2000/svg" viewBox="0 0 32 32" width="50" height="50" style="fill: #101010;border-color: rgba(0,0,0,0);border-width: bpx;border-style: undefined" filter="none"><path d="M22.667 26.667h-13.333v1.333c0 0.736-0.597 1.333-1.333 1.333v0h-2.667c-0.736 0-1.333-0.597-1.333-1.333v0-12h-1.333v-5.333h1.333v-4c0-1.473 1.194-2.667 2.667-2.667v0h18.667c1.473 0 2.667 1.194 2.667 2.667v0 4h1.333v5.333h-1.333v12c0 0.736-0.597 1.333-1.333 1.333v0h-2.667c-0.736 0-1.333-0.597-1.333-1.333v0-1.333zM6.667 6.667v9.333h18.667v-9.333h-18.667zM10 24c1.105 0 2-0.895 2-2s-0.895-2-2-2v0c-1.105 0-2 0.895-2 2s0.895 2 2 2v0zM22 24c1.105 0 2-0.895 2-2s-0.895-2-2-2v0c-1.105 0-2 0.895-2 2s0.895 2 2 2v0z"></path></svg>