<svg xmlns="http://www.w3.org/2000/svg" viewBox="0 0 32 32" width="50" height="50" style="fill: #101010;border-color: rgba(0,0,0,0);border-width: bpx;border-style: undefined" filter="none"><path d="M29.333 16v12c0 0.736-0.597 1.333-1.333 1.333v0h-1.333c-0.736 0-1.333-0.597-1.333-1.333v0-1.333h-18.667v1.333c0 0.736-0.597 1.333-1.333 1.333v0h-1.333c-0.736 0-1.333-0.597-1.333-1.333v0-12l3.307-7.717c0.418-0.958 1.358-1.616 2.451-1.616 0.001 0 0.002 0 0.002 0h3.573v-2.667h8v2.667h3.575c1.093 0 2.032 0.658 2.444 1.599l0.007 0.017 3.308 7.717zM5.568 16h20.864l-2.857-6.667h-15.148l-2.857 6.667zM8.667 22.667c1.105 0 2-0.895 2-2s-0.895-2-2-2v0c-1.105 0-2 0.895-2 2s0.895 2 2 2v0zM23.333 22.667c1.105 0 2-0.895 2-2s-0.895-2-2-2v0c-1.105 0-2 0.895-2 2s0.895 2 2 2v0z"></path></svg>