<svg xmlns="http://www.w3.org/2000/svg" viewBox="0 0 32 32" width="24" height="24" style="fill: #101010;border-color: rgba(0,0,0,0);border-width: bpx;border-style: undefined" filter="none"><path d="M5.778 13.333c1.227 0 2.222 0.995 2.222 2.222s-0.995 2.222-2.222 2.222c-1.227 0-2.222-0.995-2.222-2.222s0.995-2.222 2.222-2.222zM16 13.333c1.227 0 2.222 0.995 2.222 2.222s-0.995 2.222-2.222 2.222c-1.227 0-2.222-0.995-2.222-2.222s0.995-2.222 2.222-2.222zM26.222 13.333c1.227 0 2.222 0.995 2.222 2.222s-0.995 2.222-2.222 2.222c-1.227 0-2.222-0.995-2.222-2.222s0.995-2.222 2.222-2.222z"></path></svg>